<svg width="32" height="32" viewBox="0 0 32 32" fill="none" xmlns="http://www.w3.org/2000/svg">
<g clip-path="url(#clip0_222_141)">
<path d="M4.88889 0C2.20465 0 0 2.20465 0 4.88889V27.1111C0 29.7954 2.20465 32 4.88889 32H27.1111C29.7954 32 32 29.7954 32 27.1111V4.88889C32 2.20465 29.7954 0 27.1111 0H4.88889ZM4.88889 2.66667H27.1111C28.354 2.66667 29.3333 3.64602 29.3333 4.88889V27.1111C29.3333 28.354 28.354 29.3333 27.1111 29.3333H21.3333V20.4444H24.5556C25.0036 20.4444 25.3824 20.1094 25.4375 19.6649L25.7708 16.9983C25.8028 16.7458 25.7227 16.4923 25.5538 16.3003C25.3858 16.1092 25.144 16 24.8889 16H21.3333V12.8889C21.3333 11.9084 22.1307 11.1111 23.1111 11.1111H24.8889C25.3796 11.1111 25.7778 10.7138 25.7778 10.2222V7.22222C25.7778 6.76178 25.4265 6.37769 24.9688 6.33681C24.9163 6.33236 23.6622 6.22222 22.0747 6.22222C18.1573 6.22222 16 8.54772 16 12.7708V16H12.4444C11.9538 16 11.5556 16.3973 11.5556 16.8889V19.5556C11.5556 20.0471 11.9538 20.4444 12.4444 20.4444H16V29.3333H4.88889C3.64602 29.3333 2.66667 28.354 2.66667 27.1111V4.88889C2.66667 3.64602 3.64602 2.66667 4.88889 2.66667Z" fill="#B7B7B7"/>
</g>
<defs>
<clipPath id="clip0_222_141">
<rect width="32" height="32" fill="white"/>
</clipPath>
</defs>
</svg>
