<svg width="32" height="32" viewBox="0 0 32 32" fill="none" xmlns="http://www.w3.org/2000/svg">
<g clip-path="url(#clip0_222_139)">
<path d="M16.0125 7.79821C11.4696 7.79821 7.80536 11.4625 7.80536 16.0054C7.80536 20.5482 11.4696 24.2125 16.0125 24.2125C20.5554 24.2125 24.2196 20.5482 24.2196 16.0054C24.2196 11.4625 20.5554 7.79821 16.0125 7.79821ZM16.0125 21.3411C13.0768 21.3411 10.6768 18.9482 10.6768 16.0054C10.6768 13.0625 13.0696 10.6696 16.0125 10.6696C18.9554 10.6696 21.3482 13.0625 21.3482 16.0054C21.3482 18.9482 18.9482 21.3411 16.0125 21.3411ZM26.4696 7.4625C26.4696 8.52679 25.6125 9.37679 24.5554 9.37679C23.4911 9.37679 22.6411 8.51964 22.6411 7.4625C22.6411 6.40536 23.4982 5.54821 24.5554 5.54821C25.6125 5.54821 26.4696 6.40536 26.4696 7.4625ZM31.9054 9.40536C31.7839 6.84107 31.1982 4.56964 29.3196 2.69821C27.4482 0.826786 25.1768 0.241071 22.6125 0.1125C19.9696 -0.0375 12.0482 -0.0375 9.40536 0.1125C6.84821 0.233929 4.57679 0.819643 2.69821 2.69107C0.819643 4.5625 0.241071 6.83393 0.1125 9.39821C-0.0375 12.0411 -0.0375 19.9625 0.1125 22.6054C0.233929 25.1696 0.819643 27.4411 2.69821 29.3125C4.57679 31.1839 6.84107 31.7696 9.40536 31.8982C12.0482 32.0482 19.9696 32.0482 22.6125 31.8982C25.1768 31.7768 27.4482 31.1911 29.3196 29.3125C31.1911 27.4411 31.7768 25.1696 31.9054 22.6054C32.0554 19.9625 32.0554 12.0482 31.9054 9.40536ZM28.4911 25.4411C27.9339 26.8411 26.8554 27.9196 25.4482 28.4839C23.3411 29.3196 18.3411 29.1268 16.0125 29.1268C13.6839 29.1268 8.67678 29.3125 6.57679 28.4839C5.17679 27.9268 4.09821 26.8482 3.53393 25.4411C2.69821 23.3339 2.89107 18.3339 2.89107 16.0054C2.89107 13.6768 2.70536 8.66964 3.53393 6.56964C4.09107 5.16964 5.16964 4.09107 6.57679 3.52679C8.68393 2.69107 13.6839 2.88393 16.0125 2.88393C18.3411 2.88393 23.3482 2.69821 25.4482 3.52679C26.8482 4.08393 27.9268 5.1625 28.4911 6.56964C29.3268 8.67679 29.1339 13.6768 29.1339 16.0054C29.1339 18.3339 29.3268 23.3411 28.4911 25.4411Z" fill="#B7B7B7"/>
</g>
<defs>
<clipPath id="clip0_222_139">
<rect width="32" height="32" fill="white"/>
</clipPath>
</defs>
</svg>
