<svg width="32" height="32" viewBox="0 0 32 32" fill="none" xmlns="http://www.w3.org/2000/svg">
<path d="M32 3C30.752 3.75233 28.248 4.77764 26.776 5.07337C26.7328 5.08474 26.6976 5.09937 26.656 5.11074C25.3552 3.80757 23.5728 3 21.6 3C17.624 3 14.4 6.27417 14.4 10.312C14.4 10.5249 14.3824 10.9165 14.4 11.1245C9.0352 11.1245 4.952 8.27117 2.024 4.6249C1.7056 5.43735 1.5664 6.72102 1.5664 7.92669C1.5664 10.2032 3.3184 12.439 6.0464 13.8251C5.544 13.9567 4.9904 14.0509 4.4144 14.0509C3.4848 14.0509 2.5008 13.8023 1.6 13.0484C1.6 13.076 1.6 13.102 1.6 13.1312C1.6 16.3128 4.9248 18.4788 7.8816 19.0816C7.2816 19.4407 6.072 19.4765 5.4816 19.4765C5.0656 19.4765 3.5936 19.2831 3.2 19.2084C4.0224 21.8163 6.9888 23.282 9.816 23.334C7.6048 25.0954 6.0704 25.7486 1.5424 25.7486H0C2.8608 27.6107 6.504 29 10.1552 29C22.0432 29 28.8 19.7982 28.8 11.1245C28.8 10.9848 28.7968 10.6923 28.792 10.3982C28.792 10.3689 28.8 10.3413 28.8 10.312C28.8 10.2682 28.7872 10.2259 28.7872 10.1821C28.7824 9.96106 28.7776 9.7547 28.7728 9.64746C30.0368 8.72127 31.1328 7.56596 32 6.2498C30.84 6.77301 29.5952 7.12399 28.288 7.28323C29.6224 6.47078 31.5184 4.5339 32 3ZM25.6 11.1245C25.6 17.7541 20.8688 24.772 12.0544 25.656C13.248 24.7964 14.4 23.5761 14.4 23.5761C14.4 23.5761 9.6 19.2506 9.24 13.5992C10.896 14.1127 12.6208 14.3743 14.4 14.3743H17.6V10.312C17.6032 8.06968 19.392 6.25142 21.6 6.25142C23.8096 6.25142 25.6 8.06968 25.6 10.3137C25.6 10.3137 25.6 10.9961 25.6 11.1245Z" fill="#B7B7B7"/>
</svg>
